# xmcd
#
# Track frame offsets:
#	150
#	16980
#	28280
#	45567
#	61805
#	78242
#	94172
#	105075
#	117200
#	131502
#	142927
#	159792
#	176372
#	189670
#
# Disc length: 2742
#
# Revision: 2
# Processed by: cddbd v1.5.1PL0 Copyright (c) Steve Scherf et al.
# Submitted via: EasyCDDAExtractor 5.0.7
# Normalized: r1:DSETVAR1
#
DISCID=a20ab40e
DTITLE=Various Artist - Country Highway
DYEAR=1900
DGENRE=Country
TTITLE0=Exile - In the blink of any eye
TTITLE1=Ashley Evans - All my lovin
TTITLE2=Western Flyer - Black in America
TTITLE3=Chery Aschcraft - Walking away a winner
TTITLE4=Gretchen Peters - Wainting for the light to turn green
TTITLE5=Boro Boys - Good blessed Texas
TTITLE6=Tim O'Brien - Forever Young
TTITLE7=Amber Dotts - Wath part of no Don't no understand
TTITLE8=Don Cox - All over Town
TTITLE9=Melanie McGowon - My babes love me
TTITLE10=All Anderson - Liste to you heart
TTITLE11=Michael Davis - Standing outside the fire
TTITLE12=Doung Wayne - America Made
TTITLE13=Rachel Anderson - The Thinks He'll Keep her
EXTD=
EXTT0=
EXTT1=
EXTT2=
EXTT3=
EXTT4=
EXTT5=
EXTT6=
EXTT7=
EXTT8=
EXTT9=
EXTT10=
EXTT11=
EXTT12=
EXTT13=
PLAYORDER=
